<?xml version="1.0" encoding="UTF-8" standalone="no" ?>
<!DOCTYPE svg PUBLIC "-//W3C//DTD SVG 1.1//EN" "http://www.w3.org/Graphics/SVG/1.1/DTD/svg11.dtd">
<svg xmlns="http://www.w3.org/2000/svg" xmlns:xlink="http://www.w3.org/1999/xlink" version="1.1" width="1080" height="1080" viewBox="0 0 1080 1080" xml:space="preserve">
<desc>Created with Fabric.js 5.2.4</desc>
<defs>
</defs>
<g transform="matrix(1 0 0 1 540 540)" id="396aef98-930b-400f-a811-0cc09fb495d5"  >
<rect style="stroke: none; stroke-width: 1; stroke-dasharray: none; stroke-linecap: butt; stroke-dashoffset: 0; stroke-linejoin: miter; stroke-miterlimit: 4; fill: rgb(255,255,255); fill-rule: nonzero; opacity: 1; visibility: hidden;" vector-effect="non-scaling-stroke"  x="-540" y="-540" rx="0" ry="0" width="1080" height="1080" />
</g>
<g transform="matrix(1 0 0 1 540 540)" id="0525682a-52bc-4f9b-9d8c-5c7e1f568d1b"  >
</g>
<g transform="matrix(0.12 -0.04 -0.04 -0.12 331.28 442.25)"  >
<path style="stroke: none; stroke-width: 1; stroke-dasharray: none; stroke-linecap: butt; stroke-dashoffset: 0; stroke-linejoin: miter; stroke-miterlimit: 4; fill: rgb(0,0,0); fill-rule: nonzero; opacity: 1;" vector-effect="non-scaling-stroke"  transform=" translate(-2211.42, -3687.26)" d="M 2160 4090 C 2120 4050 2123 4024 2174 3955 C 2189 3935 2031 3622 1986 3583 C 1945 3547 1907 3541 1862 3564 C 1833 3579 1715 3699 1666 3763 C 1640 3797 1638 3803 1648 3841 C 1665 3910 1637 3950 1572 3950 C 1492 3950 1481 3833 1558 3801 C 1585 3790 1598 3764 1690 3537 C 1747 3398 1797 3281 1801 3276 C 1805 3272 1875 3276 1957 3285 C 2131 3306 2393 3301 2529 3275 C 2575 3266 2616 3262 2621 3267 C 2625 3271 2645 3320 2665 3375 C 2685 3430 2728 3545 2761 3631 C 2818 3775 2824 3787 2853 3796 C 2870 3801 2892 3817 2903 3832 C 2958 3906 2838 3996 2781 3924 C 2757 3893 2755 3879 2772 3834 C 2782 3804 2781 3798 2754 3763 C 2700 3691 2589 3582 2556 3566 C 2453 3517 2407 3562 2286 3827 L 2230 3949 L 2260 3979 C 2297 4015 2299 4052 2265 4085 C 2235 4116 2188 4118 2160 4090 z" stroke-linecap="round" />
</g>
<g transform="matrix(0.13 0 0 -0.13 513.45 554.79)"  >
<path style="stroke: none; stroke-width: 1; stroke-dasharray: none; stroke-linecap: butt; stroke-dashoffset: 0; stroke-linejoin: miter; stroke-miterlimit: 4; fill: rgb(0,0,0); fill-rule: nonzero; opacity: 1;" vector-effect="non-scaling-stroke"  transform=" translate(-2484.98, -2633.98)" d="M 4530 3363 C 4484 3325 4397 3239 4337 3170 C 4029 2818 4001 2796 3870 2796 C 3782 2797 3692 2820 3393 2919 C 2976 3057 2758 3118 2556 3150 C 1998 3240 1530 3159 887 2864 C 644 2752 300 2548 300 2514 C 300 2506 320 2491 346 2480 C 462 2430 630 2307 630 2272 C 630 2255 582 2257 456 2280 C 396 2291 336 2300 323 2300 C 216 2300 501 2131 780 2029 C 874 1995 908 1987 970 1986 C 1037 1985 1053 1989 1122 2022 C 1295 2107 1388 2271 1360 2444 C 1342 2555 1286 2675 1217 2747 C 1182 2784 1187 2800 1228 2779 C 1283 2751 1377 2644 1416 2566 C 1449 2498 1454 2480 1458 2392 C 1461 2318 1458 2279 1445 2235 C 1406 2100 1332 2007 1220 1950 C 1186 1933 1161 1915 1166 1910 C 1179 1898 1343 1862 1445 1849 C 1495 1843 1634 1838 1755 1838 C 1994 1837 2133 1851 2320 1896 C 2598 1961 2771 2030 3215 2249 C 3625 2452 3659 2465 3796 2465 C 3890 2465 3900 2463 3966 2430 C 4025 2400 4065 2365 4250 2180 C 4454 1975 4615 1840 4654 1840 C 4675 1840 4675 1877 4655 1953 C 4635 2031 4602 2107 4504 2301 C 4337 2635 4337 2672 4515 3050 C 4598 3226 4670 3398 4670 3419 C 4670 3425 4658 3430 4642 3430 C 4623 3430 4589 3409 4530 3363 z M 884 2612 C 953 2549 897 2437 805 2454 C 741 2466 712 2538 749 2597 C 777 2642 842 2649 884 2612 z" stroke-linecap="round" />
</g>
<g transform="matrix(0.13 -0.03 -0.03 -0.13 481.53 458.28)"  >
<path style="stroke: none; stroke-width: 1; stroke-dasharray: none; stroke-linecap: butt; stroke-dashoffset: 0; stroke-linejoin: miter; stroke-miterlimit: 4; fill: rgb(0,0,0); fill-rule: nonzero; opacity: 1;" vector-effect="non-scaling-stroke"  transform=" translate(-2997.61, -3219.1)" d="M 3045 3389 C 2980 3370 2710 3224 2710 3208 C 2710 3200 2713 3199 2870 3161 C 2939 3145 3059 3109 3137 3082 C 3216 3054 3282 3036 3285 3040 C 3288 3045 3260 3073 3223 3103 C 3084 3215 3046 3285 3085 3359 C 3093 3375 3096 3390 3093 3394 C 3086 3401 3084 3401 3045 3389 z" stroke-linecap="round" />
</g>
<g transform="matrix(0.13 0 0 -0.13 637.39 506.17)"  >
<path style="stroke: none; stroke-width: 1; stroke-dasharray: none; stroke-linecap: butt; stroke-dashoffset: 0; stroke-linejoin: miter; stroke-miterlimit: 4; fill: rgb(0,0,0); fill-rule: nonzero; opacity: 1;" vector-effect="non-scaling-stroke"  transform=" translate(-3573.9, -2949.97)" d="M 3512 2984 C 3500 2976 3490 2965 3490 2961 C 3490 2952 3626 2900 3649 2900 C 3668 2900 3654 2949 3628 2978 C 3602 3004 3546 3008 3512 2984 z" stroke-linecap="round" />
</g>
<g transform="matrix(0.13 0 0 -0.13 627.79 620.48)"  >
<path style="stroke: none; stroke-width: 1; stroke-dasharray: none; stroke-linecap: butt; stroke-dashoffset: 0; stroke-linejoin: miter; stroke-miterlimit: 4; fill: rgb(0,0,0); fill-rule: nonzero; opacity: 1;" vector-effect="non-scaling-stroke"  transform=" translate(-3391.49, -2146.11)" d="M 3630 2356 C 3541 2323 3109 2092 3103 2075 C 3101 2066 3307 1941 3352 1925 C 3365 1920 3369 1927 3375 1962 C 3392 2068 3473 2183 3603 2285 C 3645 2318 3680 2351 3680 2358 C 3680 2373 3675 2372 3630 2356 z" stroke-linecap="round" />
</g>
<g transform="matrix(0.13 0 0 -0.13 429.96 690.96)"  >
<path style="stroke: none; stroke-width: 1; stroke-dasharray: none; stroke-linecap: butt; stroke-dashoffset: 0; stroke-linejoin: miter; stroke-miterlimit: 4; fill: rgb(0,0,0); fill-rule: nonzero; opacity: 1;" vector-effect="non-scaling-stroke"  transform=" translate(-1789.95, -1599.27)" d="M 1590 1775 C 1590 1749 1748 1571 1825 1510 C 1883 1464 1959 1420 1980 1420 C 2004 1420 1982 1579 1939 1707 L 1918 1770 L 1801 1770 C 1736 1770 1662 1773 1636 1776 C 1611 1780 1590 1779 1590 1775 z" stroke-linecap="round" />
</g>
</svg>